<svg width="32" height="32" viewBox="0 0 32 32" fill="none" xmlns="http://www.w3.org/2000/svg">
<path fill-rule="evenodd" clip-rule="evenodd" d="M15.9992 1.4668C7.97261 1.4668 1.46582 7.97359 1.46582 16.0001C1.46582 24.0267 7.97261 30.5335 15.9992 30.5335C24.0257 30.5335 30.5325 24.0267 30.5325 16.0001C30.5325 7.97359 24.0257 1.4668 15.9992 1.4668ZM15.9992 8.13346C16.6619 8.13346 17.1992 8.67072 17.1992 9.33346V17.3335C17.1992 17.9962 16.6619 18.5335 15.9992 18.5335C15.3364 18.5335 14.7992 17.9962 14.7992 17.3335V9.33346C14.7992 8.67072 15.3364 8.13346 15.9992 8.13346ZM16.9044 23.4679C17.3478 22.9753 17.3079 22.2166 16.8153 21.7732C16.3226 21.3299 15.5639 21.3698 15.1205 21.8624L15.1072 21.8772C14.6639 22.3698 14.7038 23.1286 15.1964 23.5719C15.689 24.0153 16.4478 23.9754 16.8911 23.4828L16.9044 23.4679Z" fill="currentColor"/>
</svg>