<svg xmlns="http://www.w3.org/2000/svg" width="32" height="32" viewBox="0 0 32 32" fill="none">
  <path fill="currentColor" d="M19.1998 14.6667L21.3332 16.8V14.6667H19.1998ZM22.6665 9.33333H17.3332V11.8667H22.6665C24.9332 11.8667 26.7998 13.7333 26.7998 16C26.7998 17.7333 25.7332 19.2 24.2665 19.7333L26.1332 21.6C27.9998 20.5333 29.3332 18.4 29.3332 16C29.3332 12.2667 26.3998 9.33333 22.6665 9.33333ZM2.6665 5.73334L6.79984 9.86667C4.39984 10.8 2.6665 13.2 2.6665 16C2.6665 19.7333 5.59984 22.6667 9.33317 22.6667H14.6665V20.1333H9.33317C7.0665 20.1333 5.19984 18.2667 5.19984 16C5.19984 13.8667 6.79984 12.1333 8.93317 11.8667L11.5998 14.6667H10.6665V17.3333H14.2665L17.3332 20.4V22.6667H19.5998L24.9332 28L26.7998 26.1333L4.53317 3.86667L2.6665 5.73334Z"/>
</svg>