<svg width="32" height="32" viewBox="0 0 32 32" fill="none" xmlns="http://www.w3.org/2000/svg">
<path d="M26.6665 6.66666H5.33317C3.8665 6.66666 2.6665 7.86666 2.6665 9.33332V12V14V18V20V22.6667C2.6665 24.1333 3.8665 25.3333 5.33317 25.3333H26.6665C28.1332 25.3333 29.3332 24.1333 29.3332 22.6667V20V18V14V12V9.33332C29.3332 7.86666 28.1332 6.66666 26.6665 6.66666ZM21.3332 8.66666H26.6665C27.0665 8.66666 27.3332 8.93332 27.3332 9.33332V12H21.3332V8.66666ZM12.6665 8.66666H19.3332V12H12.6665V8.66666ZM4.6665 9.33332C4.6665 8.93332 4.93317 8.66666 5.33317 8.66666H10.6665V12H4.6665V9.33332ZM10.6665 23.3333H5.33317C4.93317 23.3333 4.6665 23.0667 4.6665 22.6667V20H10.6665V23.3333ZM19.3332 23.3333H12.6665V20H19.3332V23.3333ZM27.3332 22.6667C27.3332 23.0667 27.0665 23.3333 26.6665 23.3333H21.3332V20H27.3332V22.6667Z" fill="currentColor"/>
</svg>
