<svg width="32" height="32" viewBox="0 0 32 32" fill="none" xmlns="http://www.w3.org/2000/svg">
<path fill-rule="evenodd" clip-rule="evenodd" d="M19.6797 0.528284L28.3836 8.12811C28.6503 8.42154 28.7985 8.80356 28.7995 9.20008V12.4C28.7995 13.2837 28.0832 14 27.1995 14V14C26.3159 14 25.5995 13.2837 25.5995 12.4V10.8002H20.3356C17.8826 10.7304 15.946 8.69365 15.9997 6.24025V3.20034H7.29588L7.29317 3.20019C6.82555 3.17447 6.42562 3.5327 6.3999 4.00033V12.4001C6.3999 13.2837 5.68358 14 4.79996 14V14C3.91633 14 3.20001 13.2837 3.20001 12.4001V4.00022C3.22668 1.76477 5.0605 -0.0263706 7.29594 0.000293891H18.4957C18.9472 0.00136107 19.3772 0.193124 19.6797 0.528284ZM23.5839 7.59994L19.2 4.80003L19.2 6.23997L19.1984 6.26209C19.1564 6.9589 19.6871 7.55787 20.384 7.59994H23.5839Z" fill="currentColor"/>
<path fill-rule="evenodd" clip-rule="evenodd" d="M6.10535 16.5C5.55306 16.5 5.10535 16.9477 5.10535 17.5V24.675C5.10535 25.4068 5.69857 26 6.43035 26V26C7.16212 26 7.75535 25.4068 7.75535 24.675V23.1724L9.36572 25.4459C9.61191 25.7934 10.0114 26 10.4373 26V26C11.505 26 12.1264 24.7935 11.5063 23.9243L10.3908 22.3605C11.1176 21.7891 11.5853 20.9086 11.5853 19.81C11.5853 18.8589 11.2558 17.9997 10.5905 17.3845C9.93428 16.7778 9.05138 16.5 8.10535 16.5H6.10535ZM7.75535 19.09V20.54H8.08535C8.44524 20.54 8.63917 20.4373 8.7335 20.3499C8.81794 20.2718 8.91535 20.1218 8.91535 19.81C8.91535 19.4852 8.81899 19.3416 8.74659 19.2735C8.66605 19.1978 8.47991 19.09 8.08535 19.09H7.75535Z" fill="currentColor"/>
<path d="M22.371 16.5C21.8187 16.5 21.371 16.9477 21.371 17.5V24.675C21.371 25.4068 21.9642 26 22.696 26V26C23.4277 26 24.021 25.4068 24.021 24.675V22.74H25.876C26.5912 22.74 27.171 22.1602 27.171 21.445V21.445C27.171 20.7298 26.5912 20.15 25.876 20.15H24.021V19.09H26.296C27.0112 19.09 27.591 18.5102 27.591 17.795V17.795C27.591 17.0798 27.0112 16.5 26.296 16.5H22.371Z" fill="currentColor"/>
<path d="M20.3893 17.795C20.3893 18.5102 19.8095 19.09 19.0943 19.09H17.7293V24.68C17.7293 25.409 17.1383 26 16.4093 26V26C15.6803 26 15.0893 25.409 15.0893 24.68V19.09H13.7243C13.0091 19.09 12.4293 18.5102 12.4293 17.795V17.795C12.4293 17.0798 13.0091 16.5 13.7243 16.5H19.0943C19.8095 16.5 20.3893 17.0798 20.3893 17.795V17.795Z" fill="currentColor"/>
<path fill-rule="evenodd" clip-rule="evenodd" d="M3.39999 30C3.39999 29.1163 4.11634 28.4 4.99999 28.4L26.9 28.4C27.7836 28.4 28.5 29.1163 28.5 30C28.5 30.8836 27.7836 31.6 26.9 31.6L4.99999 31.6C4.11634 31.6 3.39999 30.8836 3.39999 30Z" fill="currentColor"/>
</svg>
